<?xml version="1.0" encoding="utf-8"?>
<!-- Generator: Adobe Illustrator 19.2.0, SVG Export Plug-In . SVG Version: 6.00 Build 0)  -->
<svg version="1.1" id="Lager_1" xmlns="http://www.w3.org/2000/svg" xmlns:xlink="http://www.w3.org/1999/xlink" x="0px" y="0px" viewBox="0 0 150 27.7" style="enable-background: new 0 0 150 27.7" xml:space="preserve">
<style>.st0 {
  fill: #222f3b;
}

</style>
<g>
	<polygon class="st0" points="8.5,0 3.3,27.2 0,27.2 5.2,0 	"></polygon>
	<path class="st0" d="M8.1,27.2l2.6-13.8c0.5-2.2,0.7-4.1,0.9-5.7h3l-0.5,3.8h0.1c1.8-2.7,4.4-4.3,7.2-4.3c2.3,0,5,1.3,5,5.4
		c0,0.8-0.2,2.1-0.3,3.1l-2.2,11.4h-3.3L22.7,16c0.2-0.8,0.3-1.7,0.3-2.5c0-2-0.8-3.4-3.1-3.4c-2.4,0-5.8,2.9-6.7,7.7l-1.8,9.5H8.1z
		"></path>
	<path class="st0" d="M33,7.7l1.7,11.1c0.3,2.2,0.5,3.7,0.6,4.8h0.1c0.4-1,0.9-2.3,2.1-4.6l6-11.4h3.7L36.3,27.2h-3.3L29.6,7.7
		L33,7.7L33,7.7z"></path>
	<path class="st0" d="M59.5,12.3c0-1.6-1.2-2.5-3-2.5c-3.2,0-5.6,3.1-6.4,6.2C55.4,16.1,59.5,15.4,59.5,12.3L59.5,12.3z M60.2,26.1
		c-1.5,0.8-3.8,1.6-6.5,1.6c-5.2,0-7.4-3.6-7.4-7.9c0-5.9,4.4-12.6,10.6-12.6c3.7,0,5.7,2.2,5.7,5c0,5.1-5.8,6.5-13,6.4
		c-0.2,0.8,0,2.7,0.4,3.7c0.8,1.7,2.3,2.6,4.4,2.6c2.3,0,4-0.7,5.2-1.4L60.2,26.1z"></path>
	<path class="st0" d="M64.4,27.2L67,13.4c0.5-2.2,0.7-4.1,0.9-5.7h3l-0.5,3.8h0.1c1.8-2.7,4.4-4.3,7.3-4.3c2.3,0,5,1.3,5,5.4
		c0,0.8-0.2,2.1-0.3,3.1l-2.2,11.4h-3.3L79,16c0.2-0.8,0.3-1.7,0.3-2.5c0-2-0.8-3.4-3.1-3.4c-2.4,0-5.8,2.9-6.7,7.7l-1.8,9.5H64.4z"></path>
	<path class="st0" d="M93.5,3l-0.9,4.7h4.7l-0.5,2.6h-4.7l-1.8,9.5c-0.2,1.1-0.3,2.1-0.3,3.1c0,1.2,0.6,1.9,1.8,1.9
		c0.6,0,1.1,0,1.6-0.2l-0.2,2.7c-0.6,0.2-1.6,0.3-2.6,0.3c-3,0-4.1-1.8-4.1-3.8c0-1.1,0.1-2.3,0.4-3.7l1.9-9.9H86l0.5-2.6h2.8
		L90,4.1L93.5,3z"></path>
	<path class="st0" d="M103.7,4.4c-1.1,0-1.9-0.9-1.9-2.1c0-1.3,1-2.3,2.2-2.3c1.2,0,2,0.9,2,2.1C106,3.4,105.1,4.4,103.7,4.4
		L103.7,4.4z M97.5,27.2l3.8-19.5h3.3l-3.8,19.5H97.5z"></path>
	<path class="st0" d="M121.5,16l-1-7.9c-0.2-1.4-0.4-3.4-0.5-5h-0.1c-0.7,1.6-1.4,3.3-2.2,5l-4.1,7.9H121.5z M112.4,18.6l-4.3,8.6
		h-3.6L118.6,0h3.9l3.8,27.2h-3.4l-1.1-8.6H112.4z"></path>
	<path class="st0" d="M135.5,4.4c-1.1,0-1.9-0.9-1.9-2.1c0-1.3,1-2.3,2.2-2.3c1.2,0,2,0.9,2,2.1C137.7,3.4,136.8,4.4,135.5,4.4
		L135.5,4.4z M129.2,27.2L133,7.7h3.3l-3.8,19.5H129.2z"></path>
	<path class="st0" d="M137.2,27.2l2.4-12.6c0.5-2.5,0.8-5.1,1-6.9h2.9c-0.2,1.4-0.3,2.8-0.5,4.3h0.1c1.3-2.7,3.3-4.7,6-4.7
		c0.3,0,0.7,0,0.9,0.1l-0.7,3.3c-0.2,0-0.5-0.1-0.9-0.1c-2.9,0-5.5,3.5-6.3,8.1l-1.6,8.6H137.2z"></path>
</g>
</svg>
